<svg xmlns="http://www.w3.org/2000/svg" viewBox="0 0 120 24" width="120" height="24">
  <!-- Matt Interfaces Logo - Minimalistisch & Modern -->
  <g fill="currentColor">
    <!-- "MI" Initials - Elegant & Minimal -->
    <path d="M2 4h4v16H2V4zm0-2h4a2 2 0 0 1 2 2v16a2 2 0 0 1-2 2H2a2 2 0 0 1-2-2V4a2 2 0 0 1 2-2z" opacity="0.9"/>
    <path d="M12 4h8v2h-6v6h6v2h-6v6h6v2h-8V4z" opacity="0.9"/>
    <!-- Optional: Subtle underline -->
    <line x1="2" y1="20" x2="20" y2="20" stroke="currentColor" stroke-width="1.5" opacity="0.6" stroke-linecap="round"/>
  </g>
</svg>

